<?xml version="1.0" standalone="no"?>
<!DOCTYPE svg PUBLIC "-//W3C//DTD SVG 20010904//EN"
 "http://www.w3.org/TR/2001/REC-SVG-20010904/DTD/svg10.dtd">
<svg version="1.0" xmlns="http://www.w3.org/2000/svg"
 width="512.000000pt" height="512.000000pt" viewBox="0 0 512.000000 512.000000"
 preserveAspectRatio="xMidYMid meet">

<g transform="translate(0.000000,512.000000) scale(0.100000,-0.100000)"
fill="#000000" stroke="none">
<path d="M2390 5114 c-919 -69 -1720 -607 -2125 -1429 -176 -355 -259 -716
-259 -1125 0 -409 83 -770 259 -1125 767 -1557 2823 -1918 4069 -715 416 402
677 917 762 1505 24 165 24 505 0 670 -40 281 -123 552 -241 790 -379 769
-1104 1292 -1955 1410 -115 16 -406 26 -510 19z m394 -1049 c649 -98 1162
-614 1263 -1270 18 -121 12 -392 -12 -500 -124 -563 -503 -983 -1035 -1148
-171 -53 -233 -62 -440 -62 -205 0 -263 8 -436 61 -481 145 -853 518 -999
1001 -46 151 -65 276 -65 433 0 738 538 1367 1270 1484 115 19 333 19 454 1z"/>
<path d="M2225 3885 c-151 -38 -305 -108 -441 -203 -80 -56 -94 -68 -94 -78 0
-16 296 -154 304 -142 1 2 21 35 44 74 55 95 145 215 222 297 34 37 61 69 59
71 -2 2 -44 -7 -94 -19z"/>
<path d="M2800 3903 c0 -3 28 -35 62 -71 77 -83 169 -206 222 -299 34 -60 44
-71 61 -66 38 10 200 82 247 108 l47 26 -32 28 c-84 72 -241 163 -364 210 -82
31 -243 73 -243 64z"/>
<path d="M2406 3769 c-106 -114 -256 -318 -256 -347 0 -9 134 -32 273 -47 l57
-6 0 230 c0 129 -4 231 -9 231 -5 0 -34 -27 -65 -61z"/>
<path d="M2640 3599 l0 -230 58 6 c138 15 272 38 272 47 0 41 -289 408 -321
408 -5 0 -9 -102 -9 -231z"/>
<path d="M1522 3442 c-21 -26 -57 -74 -79 -107 -128 -193 -178 -334 -228 -637
l-6 -38 280 0 280 0 6 58 c17 161 50 317 96 456 28 81 49 149 47 150 -2 1 -36
15 -76 30 -40 16 -120 52 -177 82 l-104 53 -39 -47z"/>
<path d="M3453 3435 c-56 -29 -135 -65 -175 -81 -40 -15 -74 -29 -76 -30 -1
-1 20 -68 47 -150 45 -138 80 -299 96 -456 l6 -58 279 0 279 0 -5 38 c-29 207
-80 381 -152 512 -45 82 -121 194 -164 242 l-33 37 -102 -54z"/>
<path d="M2064 3254 c-4 -11 -17 -44 -29 -74 -48 -116 -105 -379 -105 -482 l0
-38 275 0 275 0 0 280 0 280 -54 0 c-29 0 -105 9 -167 21 -192 34 -188 34
-195 13z"/>
<path d="M2910 3249 c-47 -10 -127 -21 -177 -25 l-93 -7 0 -278 0 -279 275 0
275 0 0 38 c0 111 -59 374 -114 507 -29 71 -35 73 -166 44z"/>
<path d="M1215 2463 c56 -345 123 -508 297 -730 l49 -62 104 53 c57 30 137 66
177 82 40 15 74 29 76 30 2 1 -19 69 -47 150 -46 139 -79 295 -96 457 l-6 57
-280 0 -280 0 6 -37z"/>
<path d="M1930 2463 c0 -112 60 -377 114 -508 30 -71 22 -69 210 -36 65 12
143 21 172 21 l54 0 0 280 0 280 -275 0 -275 0 0 -37z"/>
<path d="M2640 2220 l0 -280 54 0 c29 0 107 -9 172 -21 188 -33 180 -35 209
36 56 135 115 396 115 508 l0 37 -275 0 -275 0 0 -280z"/>
<path d="M3345 2443 c-16 -158 -51 -319 -96 -457 -27 -82 -48 -149 -47 -150 2
-1 36 -15 76 -30 40 -15 116 -50 168 -77 52 -27 101 -49 108 -49 27 0 144 164
210 297 74 148 111 278 140 486 l5 37 -279 0 -279 0 -6 -57z"/>
<path d="M2405 1784 c-130 -16 -255 -38 -255 -46 0 -40 289 -408 321 -408 5 0
9 98 9 230 l0 230 -22 -1 c-13 -1 -36 -4 -53 -5z"/>
<path d="M2640 1561 c0 -132 4 -231 9 -231 32 0 321 368 321 408 0 9 -136 32
-272 47 l-58 6 0 -230z"/>
<path d="M1900 1665 c-120 -50 -211 -97 -207 -110 5 -17 131 -108 209 -151 98
-55 235 -109 336 -132 45 -11 82 -17 82 -15 0 3 -28 35 -62 71 -77 84 -169
206 -222 299 -22 40 -43 72 -46 72 -3 1 -43 -15 -90 -34z"/>
<path d="M3084 1627 c-53 -93 -145 -216 -222 -299 -34 -36 -62 -68 -62 -71 0
-9 161 33 243 64 95 36 183 83 282 150 67 44 113 85 104 92 -32 25 -227 114
-284 130 -17 5 -27 -6 -61 -66z"/>
</g>
</svg>
