<?xml version="1.0" standalone="no"?>
<!DOCTYPE svg PUBLIC "-//W3C//DTD SVG 20010904//EN"
 "http://www.w3.org/TR/2001/REC-SVG-20010904/DTD/svg10.dtd">
<svg version="1.0" xmlns="http://www.w3.org/2000/svg"
 width="512.000000pt" height="512.000000pt" viewBox="0 0 512.000000 512.000000"
 preserveAspectRatio="xMidYMid meet">

<g transform="translate(0.000000,512.000000) scale(0.100000,-0.100000)"
fill="#000000" stroke="none">
<path d="M2330 5109 c-503 -48 -997 -248 -1385 -564 -121 -98 -334 -318 -423
-437 -295 -393 -466 -840 -512 -1333 -26 -279 -1 -561 75 -861 81 -317 232
-628 437 -902 89 -119 302 -339 423 -437 510 -414 1190 -624 1830 -565 342 32
649 120 950 274 260 132 456 278 670 497 205 210 330 389 460 654 89 181 135
304 180 479 113 445 113 847 0 1292 -81 317 -232 628 -437 902 -89 119 -302
339 -423 437 -203 165 -493 330 -739 420 -336 123 -753 178 -1106 144z m500
-1054 c217 -44 438 -138 607 -260 122 -89 283 -256 366 -381 116 -175 180
-328 229 -550 32 -145 31 -425 -1 -573 -66 -303 -192 -540 -399 -753 -130
-133 -250 -221 -417 -303 -196 -96 -372 -141 -590 -151 -427 -20 -833 142
-1138 455 -215 220 -351 489 -408 801 -18 98 -18 382 0 480 59 324 195 586
425 816 241 242 534 388 871 433 95 13 363 5 455 -14z"/>
<path d="M2210 3884 c-157 -41 -331 -126 -468 -229 -34 -26 -59 -51 -56 -57
17 -27 306 -147 312 -130 17 52 251 366 305 411 17 14 23 32 10 30 -5 0 -51
-12 -103 -25z"/>
<path d="M2800 3901 c0 -5 8 -15 17 -22 54 -45 288 -359 305 -411 2 -5 28 0
58 10 73 26 246 107 253 120 4 5 -17 28 -46 50 -131 101 -320 196 -459 231
-123 31 -128 32 -128 22z"/>
<path d="M2632 3608 l3 -233 75 3 c72 2 250 29 259 38 8 8 -41 91 -105 177
-65 88 -210 247 -225 247 -6 0 -8 -97 -7 -232z"/>
<path d="M2391 3753 c-116 -124 -257 -321 -241 -337 10 -9 187 -36 260 -38
l75 -3 3 228 c2 191 0 227 -12 227 -8 0 -46 -34 -85 -77z"/>
<path d="M1517 3438 c-65 -76 -148 -212 -195 -320 -48 -110 -99 -306 -104
-398 l-3 -65 280 0 280 0 7 80 c14 170 65 394 122 529 23 55 21 63 -21 77 -29
9 -263 118 -314 146 -4 2 -27 -20 -52 -49z"/>
<path d="M3505 3464 c-34 -20 -215 -103 -292 -134 l-22 -9 20 -45 c57 -131
113 -365 127 -541 l7 -80 274 -3 c151 -1 279 2 284 7 11 11 -7 141 -39 266
-31 124 -90 259 -161 373 -55 87 -139 193 -151 191 -4 0 -25 -12 -47 -25z"/>
<path d="M2042 3203 c-64 -165 -112 -380 -112 -501 l0 -52 278 2 277 3 0 280
0 280 -75 7 c-85 9 -297 43 -322 53 -13 5 -22 -9 -46 -72z"/>
<path d="M2952 3259 c-46 -9 -132 -23 -190 -29 -59 -7 -113 -14 -120 -16 -10
-3 -12 -64 -10 -281 l3 -278 278 -3 277 -2 0 52 c0 74 -26 227 -56 333 -31
108 -83 246 -92 244 -4 -1 -45 -10 -90 -20z"/>
<path d="M1217 2503 c-12 -11 3 -120 34 -248 48 -193 156 -409 268 -535 l46
-50 105 54 c58 29 138 66 178 82 39 15 72 33 72 40 0 6 -7 29 -16 50 -57 135
-108 359 -122 529 l-7 80 -276 3 c-151 1 -279 -1 -282 -5z"/>
<path d="M1930 2458 c0 -121 48 -336 112 -501 24 -63 33 -77 46 -72 25 10 237
44 322 53 l75 7 0 280 0 280 -277 3 -278 2 0 -52z"/>
<path d="M2635 2497 c-3 -7 -4 -134 -3 -282 l3 -270 75 -7 c85 -9 297 -43 322
-53 42 -16 158 402 158 573 l0 52 -275 0 c-213 0 -277 -3 -280 -13z"/>
<path d="M3346 2498 c-3 -7 -7 -47 -10 -88 -12 -159 -69 -398 -125 -526 l-20
-45 22 -9 c12 -5 55 -23 96 -40 40 -16 112 -50 160 -75 l86 -46 39 43 c157
173 298 509 308 738 l3 55 -278 3 c-217 2 -278 0 -281 -10z"/>
<path d="M2340 1779 c-115 -15 -190 -31 -190 -41 0 -51 286 -408 327 -408 11
0 13 41 11 228 l-3 227 -40 1 c-22 1 -69 -2 -105 -7z"/>
<path d="M2638 1784 c-5 -4 -8 -108 -8 -231 0 -187 2 -223 14 -223 43 0 349
390 325 414 -15 16 -319 53 -331 40z"/>
<path d="M1932 1680 c-72 -26 -238 -105 -246 -118 -14 -23 192 -156 344 -223
83 -37 279 -93 289 -83 3 2 -14 23 -36 47 -70 72 -176 211 -233 306 -30 49
-57 90 -60 90 -3 0 -29 -9 -58 -19z"/>
<path d="M3070 1608 c-58 -94 -163 -233 -233 -305 -22 -24 -39 -45 -36 -47 3
-3 50 6 104 20 106 27 219 72 318 128 88 49 218 146 211 157 -11 19 -215 112
-289 132 -17 5 -29 -10 -75 -85z"/>
</g>
</svg>
